TITLE ""
FILE "Disc2Track47.mp3" MP3
  TRACK 01 AUDIO
    TITLE "Disc2Track47_01"
    INDEX 01 00:00:00
  TRACK 02 AUDIO
    TITLE "Disc2Track47_02"
    INDEX 01 00:01:22
  TRACK 03 AUDIO
    TITLE "Disc2Track47_03"
    INDEX 01 00:04:36
  TRACK 04 AUDIO
    TITLE "Disc2Track47_04"
    INDEX 01 00:05:68
  TRACK 05 AUDIO
    TITLE "Disc2Track47_05"
    INDEX 01 00:09:72
  TRACK 06 AUDIO
    TITLE "Disc2Track47_06"
    INDEX 01 00:10:28
  TRACK 07 AUDIO
    TITLE "Disc2Track47_07"
    INDEX 01 00:11:67
  TRACK 08 AUDIO
    TITLE "Disc2Track47_08"
    INDEX 01 00:14:48
  TRACK 09 AUDIO
    TITLE "Disc2Track47_09"
    INDEX 01 00:16:11
  TRACK 10 AUDIO
    TITLE "Disc2Track47_10"
    INDEX 01 00:16:52
  TRACK 11 AUDIO
    TITLE "Disc2Track47_11"
    INDEX 01 00:18:08
  TRACK 12 AUDIO
    TITLE "Disc2Track47_12"
    INDEX 01 00:20:19
  TRACK 13 AUDIO
    TITLE "Disc2Track47_13"
    INDEX 01 00:21:50
  TRACK 14 AUDIO
    TITLE "Disc2Track47_14"
    INDEX 01 00:24:03
  TRACK 15 AUDIO
    TITLE "Disc2Track47_15"
    INDEX 01 00:24:34
  TRACK 16 AUDIO
    TITLE "Disc2Track47_16"
    INDEX 01 00:25:51
  TRACK 17 AUDIO
    TITLE "Disc2Track47_17"
    INDEX 01 00:27:56
  TRACK 18 AUDIO
    TITLE "Disc2Track47_18"
    INDEX 01 00:28:71
  TRACK 19 AUDIO
    TITLE "Disc2Track47_19"
    INDEX 01 00:29:37
  TRACK 20 AUDIO
    TITLE "Disc2Track47_20"
    INDEX 01 00:30:72
  TRACK 21 AUDIO
    TITLE "Disc2Track47_21"
    INDEX 01 00:33:08
  TRACK 22 AUDIO
    TITLE "Disc2Track47_22"
    INDEX 01 00:34:43
  TRACK 23 AUDIO
    TITLE "Disc2Track47_23"
    INDEX 01 00:39:04
  TRACK 24 AUDIO
    TITLE "Disc2Track47_24"
    INDEX 01 00:39:36
  TRACK 25 AUDIO
    TITLE "Disc2Track47_25"
    INDEX 01 00:40:65
  TRACK 26 AUDIO
    TITLE "Disc2Track47_26"
    INDEX 01 00:42:19
  TRACK 27 AUDIO
    TITLE "Disc2Track47_27"
    INDEX 01 00:43:47
  TRACK 28 AUDIO
    TITLE "Disc2Track47_28"
    INDEX 01 00:44:06
  TRACK 29 AUDIO
    TITLE "Disc2Track47_29"
    INDEX 01 00:45:66
  TRACK 30 AUDIO
    TITLE "Disc2Track47_30"
    INDEX 01 00:47:10
  TRACK 31 AUDIO
    TITLE "Disc2Track47_31"
    INDEX 01 00:48:68
  TRACK 32 AUDIO
    TITLE "Disc2Track47_32"
    INDEX 01 00:54:63
  TRACK 33 AUDIO
    TITLE "Disc2Track47_33"
    INDEX 01 00:55:19
  TRACK 34 AUDIO
    TITLE "Disc2Track47_34"
    INDEX 01 00:56:62
  TRACK 35 AUDIO
    TITLE "Disc2Track47_35"
    INDEX 01 00:59:19
  TRACK 36 AUDIO
    TITLE "Disc2Track47_36"
    INDEX 01 01:00:61
  TRACK 37 AUDIO
    TITLE "Disc2Track47_37"
    INDEX 01 01:05:65
  TRACK 38 AUDIO
    TITLE "Disc2Track47_38"
    INDEX 01 01:06:21
  TRACK 39 AUDIO
    TITLE "Disc2Track47_39"
    INDEX 01 01:07:40
  TRACK 40 AUDIO
    TITLE "Disc2Track47_40"
    INDEX 01 01:10:52
  TRACK 41 AUDIO
    TITLE "Disc2Track47_41"
    INDEX 01 01:11:69
  TRACK 42 AUDIO
    TITLE "Disc2Track47_42"
    INDEX 01 01:16:15
  TRACK 43 AUDIO
    TITLE "Disc2Track47_43"
    INDEX 01 01:16:45
  TRACK 44 AUDIO
    TITLE "Disc2Track47_44"
    INDEX 01 01:17:68
  TRACK 45 AUDIO
    TITLE "Disc2Track47_45"
    INDEX 01 01:19:59
  TRACK 46 AUDIO
    TITLE "Disc2Track47_46"
    INDEX 01 01:21:07
  TRACK 47 AUDIO
    TITLE "Disc2Track47_47"
    INDEX 01 01:21:44
  TRACK 48 AUDIO
    TITLE "Disc2Track47_48"
    INDEX 01 01:22:67
  TRACK 49 AUDIO
    TITLE "Disc2Track47_49"
    INDEX 01 01:25:44
  TRACK 50 AUDIO
    TITLE "Disc2Track47_50"
    INDEX 01 01:26:65
  TRACK 51 AUDIO
    TITLE "Disc2Track47_51"
    INDEX 01 01:30:47
  TRACK 52 AUDIO
    TITLE "Disc2Track47_52"
    INDEX 01 01:31:03
  TRACK 53 AUDIO
    TITLE "Disc2Track47_53"
    INDEX 01 01:32:36
  TRACK 54 AUDIO
    TITLE "Disc2Track47_54"
    INDEX 01 01:35:01
  TRACK 55 AUDIO
    TITLE "Disc2Track47_55"
    INDEX 01 01:36:34
